<svg id="logo" xmlns="http://www.w3.org/2000/svg" width="167" height="70" viewBox="0 0 167 70">
  <defs>
    <style>
      .cls-1 {
        fill: #ebc69f;
      }

      .cls-1, .cls-2, .cls-3, .cls-4 {
        fill-rule: evenodd;
      }

      .cls-2 {
        fill: #fff;
      }

      .cls-3 {
        fill: #ebc6a0;
      }

      .cls-4 {
        fill: #afaeae;
      }
    </style>
  </defs>
  <path id="Фигура_1" data-name="Фигура 1" class="cls-1" d="M21.908,10.531a10.717,10.717,0,0,1,9.556,6.524c1.977,4.214,1.383,8.269-1.422,11.981a3.333,3.333,0,0,1-1.621,1.4,2.211,2.211,0,0,1-2.652-.752,2.408,2.408,0,0,1,.254-3.123c2.339-2.838,2.523-6.078.56-8.69a6.721,6.721,0,0,0-9.654-1.19,6.634,6.634,0,0,0-.639,9.79c3.027,3.132,6.156,6.165,9.23,9.251,3.421,3.435,3.4,7.322-.051,10.779-0.769.771-1.53,1.55-2.313,2.307-1.418,1.372-2.5,1.381-3.889.026q-1.506-1.464-2.972-2.969a6.7,6.7,0,0,1-1.753-6.447A2.46,2.46,0,0,1,17.4,37.216c1.4,0.278,2.089,1.428,1.707,3.12a2.137,2.137,0,0,0,1.3,2.779,1.962,1.962,0,0,0,2.58-.816,2.281,2.281,0,0,0-.545-3.065c-3.237-3.217-6.553-6.362-9.645-9.713a11.29,11.29,0,0,1,3.843-18.058A12.429,12.429,0,0,1,21.908,10.531Z"/>
  <path id="Фигура_1_копия" data-name="Фигура 1 копия" class="cls-2" d="M30.773,41.25c-0.3-1.716-.39-3.2-1.248-4.432-0.446-.64.023-0.929,0.367-1.285,1.083-1.118,2.238-2.172,3.252-3.348A15.79,15.79,0,1,0,5.54,19.656,15.467,15.467,0,0,0,9.679,32.7c0.983,1.067,2.289,1.919,3.007,3.13,0.805,1.359-1.014,2.516-.875,3.964a6.307,6.307,0,0,1-.166,1.3C6.653,36.56,2.02,32.037.929,24.963a20.559,20.559,0,0,1,17.248-23.3C28.849-.146,39.605,7.6,41.308,18.349a20.138,20.138,0,0,1-5.865,18.194C33.955,38.051,32.458,39.552,30.773,41.25Z"/>
  <path id="Фигура_2" data-name="Фигура 2" class="cls-2" d="M112.656,11.917c3.1-2.614,6.188-2.4,8.468.578a5.709,5.709,0,0,1,5.684-2.292,4.18,4.18,0,0,1,3.733,4.278c0.173,2.817.107,5.651,0.082,8.478-0.013,1.424-.945,1.978-2.269,1.945a1.909,1.909,0,0,1-2.143-2.084c0-2.108.007-4.215-.007-6.324-0.013-2.024-.51-2.758-1.858-2.809-1.545-.057-2.608.957-2.678,2.759-0.081,2.105.014,4.216-.04,6.322a1.977,1.977,0,0,1-2.405,2.135,1.9,1.9,0,0,1-2.027-2.047c0-2.108,0-4.216-.008-6.323-0.009-2.035-.489-2.776-1.819-2.844-1.594-.083-2.661.981-2.725,2.874-0.065,1.952,0,3.907-.021,5.861-0.019,1.758-.692,2.489-2.225,2.488s-2.211-.736-2.22-2.484c-0.016-3.187.023-6.375-.018-9.563-0.017-1.256.236-2.256,1.631-2.581A2.279,2.279,0,0,1,112.656,11.917ZM54.746,24.908a12.275,12.275,0,0,1-5.17-.82,7.114,7.114,0,0,1-2.144-1.22,1.887,1.887,0,0,1-.4-2.632c0.618-1.033,1.545-.916,2.432-0.4a9.741,9.741,0,0,0,6.97,1.435c1.195-.231,2.259-0.672,2.363-2.041,0.106-1.4-1.031-1.779-2.091-2.079-1.59-.45-3.224-0.753-4.8-1.243-3.325-1.034-4.841-2.809-4.8-5.463A6.35,6.35,0,0,1,52,4.567,11.514,11.514,0,0,1,61.836,5.82c1.3,0.839,1.636,1.982.92,2.991-0.852,1.2-1.875.781-2.857,0.175a7.556,7.556,0,0,0-5.916-1.174c-1.188.283-2.172,0.828-2.269,2.179-0.1,1.39.994,1.825,2.04,2.157,2.163,0.687,4.453.962,6.52,1.965a5.16,5.16,0,0,1,1.385,8.69,8.05,8.05,0,0,1-4.9,2.093A17.949,17.949,0,0,1,54.746,24.908ZM155.6,11.939a6.12,6.12,0,0,1,5.216-1.78c2.518,0.262,4.061,1.944,4.216,4.889,0.138,2.614.082,5.241,0.028,7.86a2.245,2.245,0,0,1-4.465-.015c-0.055-2.106,0-4.214-.024-6.321s-0.629-2.879-2.166-2.887a2.764,2.764,0,0,0-2.911,2.926c-0.079,1.95-.035,3.9-0.055,5.857-0.017,1.668-.646,2.392-2.1,2.443-1.553.054-2.364-.684-2.388-2.35-0.043-3.083-.009-6.167-0.016-9.251,0-1.259-.062-2.528,1.522-2.994C153.741,9.939,154.538,10.331,155.6,11.939ZM97.911,24.913c-4.617,0-7.541-2.814-7.593-7.3s2.988-7.469,7.633-7.472c4.662,0,7.7,2.947,7.665,7.435C105.577,22.134,102.657,24.915,97.911,24.913Zm3.188-7.676a6.526,6.526,0,0,0-.061-0.876A3.044,3.044,0,0,0,97.955,13.5,2.968,2.968,0,0,0,94.9,16.367a6.586,6.586,0,0,0,.311,3.481,3.087,3.087,0,0,0,5.454.134A5.85,5.85,0,0,0,101.1,17.237Zm39.727,7.676c-4.751,0-7.695-2.816-7.683-7.355,0.011-4.52,3.021-7.429,7.678-7.42,4.613,0.008,7.529,2.838,7.56,7.335C148.412,22.1,145.553,24.911,140.826,24.913Zm3.133-7.366c0-2.339-1-3.792-2.764-4.015-1.92-.243-3.231.9-3.476,3.032-0.339,2.96.579,4.73,2.576,4.964C142.641,21.8,143.961,20.369,143.959,17.547ZM73.051,24.913c-4.7,0-7.47-2.714-7.475-7.314-0.005-4.671,2.815-7.465,7.532-7.462,4.676,0,7.63,2.883,7.636,7.443C80.75,22.1,77.8,24.916,73.051,24.913Zm3.19-7.312c0.012-2.6-.99-3.986-2.965-4.094-1.819-.1-3.076,1.108-3.279,3.146-0.282,2.839.65,4.607,2.563,4.864C74.925,21.835,76.228,20.448,76.241,17.6Zm11.512-2.887c0,2.615.015,5.231-.006,7.846-0.013,1.635-.7,2.343-2.179,2.352a2,2,0,0,1-2.253-2.3q-0.041-8.077,0-16.153a1.993,1.993,0,0,1,2.269-2.273c1.46,0.019,2.152.754,2.162,2.373C87.766,9.277,87.753,12,87.753,14.713Z"/>
  <path id="Homeland" class="cls-3" d="M58.332,29v6.475H50.222V29H47.309V44.679h2.913V37.958h8.111v6.722h2.913V29H58.332Zm12.233,15.84a6.834,6.834,0,0,0,3.294-.784,5.717,5.717,0,0,0,2.274-2.184,6.532,6.532,0,0,0,0-6.329,5.745,5.745,0,0,0-2.274-2.173,7.261,7.261,0,0,0-6.565,0,5.741,5.741,0,0,0-2.274,2.173,6.532,6.532,0,0,0,0,6.329,5.714,5.714,0,0,0,2.274,2.185,6.786,6.786,0,0,0,3.271.784h0Zm0-2.4a3.384,3.384,0,0,1-2.543-1.031,4.184,4.184,0,0,1,0-5.422,3.386,3.386,0,0,1,2.543-1.031,3.423,3.423,0,0,1,2.554,1.031,4.149,4.149,0,0,1,0,5.422,3.422,3.422,0,0,1-2.554,1.031h0ZM94.74,32.581a6.189,6.189,0,0,0-2.577.526,4.987,4.987,0,0,0-1.9,1.468,3.874,3.874,0,0,0-1.647-1.49,5.413,5.413,0,0,0-2.386-.5,5.71,5.71,0,0,0-2.241.426,4.355,4.355,0,0,0-1.68,1.232V32.715H79.639V44.679h2.8V38.608a3.819,3.819,0,0,1,.84-2.666,2.93,2.93,0,0,1,2.274-.919,2.506,2.506,0,0,1,1.994.8,3.5,3.5,0,0,1,.694,2.364v6.5h2.8V38.608a3.793,3.793,0,0,1,.851-2.655,2.921,2.921,0,0,1,2.263-.93,2.506,2.506,0,0,1,1.994.8,3.5,3.5,0,0,1,.694,2.364v6.5h2.8V37.823a5.313,5.313,0,0,0-1.322-3.932,4.868,4.868,0,0,0-3.585-1.311h0Zm19.851,6.184a6.594,6.594,0,0,0-.773-3.237,5.484,5.484,0,0,0-2.151-2.173,6.281,6.281,0,0,0-3.126-.773,6.438,6.438,0,0,0-3.181.784,5.644,5.644,0,0,0-2.207,2.185,6.264,6.264,0,0,0-.8,3.148,6.17,6.17,0,0,0,.818,3.17,5.643,5.643,0,0,0,2.319,2.185,8.079,8.079,0,0,0,6.251.291,5.054,5.054,0,0,0,2.039-1.456l-1.5-1.725a4.361,4.361,0,0,1-3.249,1.3,4.226,4.226,0,0,1-2.588-.773,3.254,3.254,0,0,1-1.288-2.095h9.388q0.045-.538.045-0.829h0Zm-6.05-3.943a3.342,3.342,0,0,1,2.286.807,3.3,3.3,0,0,1,1.1,2.106h-6.788a3.343,3.343,0,0,1,1.131-2.117,3.38,3.38,0,0,1,2.274-.8h0Zm8.738,9.858h2.8V28.055h-2.8V44.679Zm11.046-12.1a10.074,10.074,0,0,0-2.8.381,6.8,6.8,0,0,0-2.263,1.1l1.1,2.039a4.878,4.878,0,0,1,1.647-.874,6.43,6.43,0,0,1,1.982-.314,3.25,3.25,0,0,1,2.23.672,2.453,2.453,0,0,1,.75,1.927v0.179h-3.092a5.954,5.954,0,0,0-3.775.975,3.168,3.168,0,0,0-1.2,2.588,3.239,3.239,0,0,0,.548,1.848,3.63,3.63,0,0,0,1.558,1.277,5.627,5.627,0,0,0,2.352.459,5.743,5.743,0,0,0,2.3-.415,3.261,3.261,0,0,0,1.467-1.2v1.456h2.644V37.667a4.9,4.9,0,0,0-1.4-3.82,5.836,5.836,0,0,0-4.044-1.266h0ZM127.944,42.8a2.775,2.775,0,0,1-1.681-.448,1.428,1.428,0,0,1-.605-1.21q0-1.591,2.42-1.591h2.89v1.389a2.616,2.616,0,0,1-1.154,1.378,3.61,3.61,0,0,1-1.87.482h0Zm16.2-10.217a6.3,6.3,0,0,0-2.375.426,4.38,4.38,0,0,0-1.747,1.255V32.715h-2.666V44.679h2.8V38.63a3.7,3.7,0,0,1,.9-2.677,3.232,3.232,0,0,1,2.442-.93,2.734,2.734,0,0,1,2.106.8,3.359,3.359,0,0,1,.739,2.364v6.5h2.8V37.823a5.215,5.215,0,0,0-1.367-3.921,5,5,0,0,0-3.63-1.322h0Zm17.588-4.526v6.139a4.372,4.372,0,0,0-1.68-1.21,5.694,5.694,0,0,0-2.174-.4,6.309,6.309,0,0,0-3.1.762,5.5,5.5,0,0,0-2.162,2.151,6.961,6.961,0,0,0,0,6.419,5.476,5.476,0,0,0,2.162,2.162,6.3,6.3,0,0,0,3.1.762,5.793,5.793,0,0,0,2.252-.426,4.326,4.326,0,0,0,1.714-1.277v1.546h2.689V28.055h-2.8Zm-3.517,14.384a3.6,3.6,0,0,1-1.815-.459,3.31,3.31,0,0,1-1.277-1.311,4.362,4.362,0,0,1,0-3.943,3.314,3.314,0,0,1,1.277-1.311,3.814,3.814,0,0,1,3.629,0,3.314,3.314,0,0,1,1.277,1.311,4.362,4.362,0,0,1,0,3.943,3.31,3.31,0,0,1-1.277,1.311,3.6,3.6,0,0,1-1.814.459h0Z"/>
  <path id="Real_Estate_Investments_" data-name="Real Estate Investments " class="cls-4" d="M8.759,69.44L6.708,66.562a2.757,2.757,0,0,0,1.421-.977,2.73,2.73,0,0,0,.5-1.661,2.612,2.612,0,0,0-.911-2.111A3.793,3.793,0,0,0,5.2,61.045H2.055v8.4H2.942V66.778H5.2a6.079,6.079,0,0,0,.672-0.036l1.919,2.7H8.759ZM5.173,66.022H2.942v-4.21H5.173a2.923,2.923,0,0,1,1.907.546,2.165,2.165,0,0,1,0,3.112,2.9,2.9,0,0,1-1.907.552h0ZM17.01,66.286a3.412,3.412,0,0,0-.4-1.661,2.891,2.891,0,0,0-1.091-1.133,3.05,3.05,0,0,0-1.571-.408,3.082,3.082,0,0,0-1.577.408,2.911,2.911,0,0,0-1.1,1.139,3.38,3.38,0,0,0-.4,1.655,3.263,3.263,0,0,0,.42,1.655,2.982,2.982,0,0,0,1.169,1.145,3.5,3.5,0,0,0,1.721.414,3.547,3.547,0,0,0,1.385-.264,2.7,2.7,0,0,0,1.049-.768l-0.48-.552a2.357,2.357,0,0,1-.851.618,2.721,2.721,0,0,1-1.079.21,2.508,2.508,0,0,1-1.727-.606,2.254,2.254,0,0,1-.756-1.589H17Zm-3.058-2.471a2.161,2.161,0,0,1,1.541.582,2.286,2.286,0,0,1,.7,1.517H11.721a2.284,2.284,0,0,1,.7-1.517,2.145,2.145,0,0,1,1.529-.582h0Zm7.784-.732a4.484,4.484,0,0,0-1.415.222,3.4,3.4,0,0,0-1.151.63l0.384,0.636a2.9,2.9,0,0,1,.947-0.546,3.383,3.383,0,0,1,1.151-.2,1.883,1.883,0,0,1,1.331.426,1.617,1.617,0,0,1,.456,1.241v0.384h-2a2.847,2.847,0,0,0-1.853.492A1.733,1.733,0,0,0,19.625,69a2.6,2.6,0,0,0,1.679.5,2.957,2.957,0,0,0,1.325-.276,1.951,1.951,0,0,0,.845-0.767V69.44H24.29V65.53a2.388,2.388,0,0,0-.66-1.829,2.671,2.671,0,0,0-1.895-.618h0Zm-0.3,5.745a1.91,1.91,0,0,1-1.175-.318,1.031,1.031,0,0,1-.42-0.87q0-1.127,1.619-1.127h1.979v1.031a1.969,1.969,0,0,1-.768.953,2.243,2.243,0,0,1-1.235.33h0Zm6.129,0.612h0.852v-8.9H27.564v8.9Zm9.355-.768V65.554h4.342V64.8H36.919V61.812h4.869V61.045H36.032v8.4h5.937V68.673H36.919ZM46.43,69.5a3.278,3.278,0,0,0,1.913-.486,1.526,1.526,0,0,0,.69-1.313,1.353,1.353,0,0,0-.324-0.959,1.78,1.78,0,0,0-.779-0.492,11.045,11.045,0,0,0-1.211-.288,9.358,9.358,0,0,1-.959-0.21,1.436,1.436,0,0,1-.582-0.318,0.746,0.746,0,0,1-.234-0.576,0.882,0.882,0,0,1,.414-0.756,2.156,2.156,0,0,1,1.229-.288,3.184,3.184,0,0,1,1.859.54l0.372-.684a3.368,3.368,0,0,0-1.008-.426,4.76,4.76,0,0,0-1.223-.162,2.962,2.962,0,0,0-1.835.5,1.56,1.56,0,0,0-.66,1.3,1.417,1.417,0,0,0,.33,1,1.814,1.814,0,0,0,.8.51,10.541,10.541,0,0,0,1.235.294,8.285,8.285,0,0,1,.923.2,1.516,1.516,0,0,1,.576.3,0.685,0.685,0,0,1,.228.546,0.859,0.859,0,0,1-.414.761,2.382,2.382,0,0,1-1.277.27,3.955,3.955,0,0,1-1.247-.2,3.228,3.228,0,0,1-1-.51l-0.384.672a3.16,3.16,0,0,0,1.1.558,4.841,4.841,0,0,0,1.469.222h0Zm8.155-1.055a1.265,1.265,0,0,1-.426.24,1.564,1.564,0,0,1-.51.084,1.068,1.068,0,0,1-.81-0.294,1.192,1.192,0,0,1-.282-0.858V63.851h1.919v-0.72H52.558V61.752H51.707v1.379H50.579v0.72h1.127v3.814A1.671,1.671,0,0,0,53.554,69.5a2.394,2.394,0,0,0,.738-0.114,1.614,1.614,0,0,0,.594-0.33ZM59.6,63.084a4.485,4.485,0,0,0-1.415.222,3.405,3.405,0,0,0-1.151.63l0.384,0.636a2.9,2.9,0,0,1,.947-0.546,3.384,3.384,0,0,1,1.151-.2,1.883,1.883,0,0,1,1.331.426,1.617,1.617,0,0,1,.456,1.241v0.384h-2a2.847,2.847,0,0,0-1.853.492A1.733,1.733,0,0,0,57.487,69a2.6,2.6,0,0,0,1.679.5,2.957,2.957,0,0,0,1.325-.276,1.951,1.951,0,0,0,.846-0.767V69.44h0.816V65.53a2.388,2.388,0,0,0-.66-1.829,2.671,2.671,0,0,0-1.895-.618h0Zm-0.3,5.745a1.91,1.91,0,0,1-1.175-.318,1.031,1.031,0,0,1-.42-0.87q0-1.127,1.619-1.127H61.3v1.031a1.969,1.969,0,0,1-.768.953,2.243,2.243,0,0,1-1.235.33h0Zm9.151-.384a1.264,1.264,0,0,1-.426.24,1.564,1.564,0,0,1-.51.084,1.068,1.068,0,0,1-.809-0.294,1.191,1.191,0,0,1-.282-0.858V63.851h1.919v-0.72H66.422V61.752H65.571v1.379H64.443v0.72h1.127v3.814A1.671,1.671,0,0,0,67.418,69.5a2.393,2.393,0,0,0,.737-0.114,1.613,1.613,0,0,0,.594-0.33Zm8.083-2.159a3.412,3.412,0,0,0-.4-1.661,2.892,2.892,0,0,0-1.091-1.133,3.05,3.05,0,0,0-1.571-.408,3.082,3.082,0,0,0-1.577.408,2.91,2.91,0,0,0-1.1,1.139,3.38,3.38,0,0,0-.4,1.655,3.263,3.263,0,0,0,.42,1.655,2.982,2.982,0,0,0,1.169,1.145A3.5,3.5,0,0,0,73.7,69.5a3.547,3.547,0,0,0,1.385-.264,2.7,2.7,0,0,0,1.049-.768l-0.48-.552a2.357,2.357,0,0,1-.852.618,2.721,2.721,0,0,1-1.079.21A2.508,2.508,0,0,1,72,68.139a2.254,2.254,0,0,1-.756-1.589h5.277Zm-3.058-2.471a2.161,2.161,0,0,1,1.541.582,2.285,2.285,0,0,1,.7,1.517H71.244a2.284,2.284,0,0,1,.7-1.517,2.145,2.145,0,0,1,1.529-.582h0ZM83.513,69.44H84.4v-8.4H83.513v8.4Zm7.616-6.357a3.091,3.091,0,0,0-1.433.318,2.368,2.368,0,0,0-.966.894V63.132H87.914V69.44h0.852V66.13a2.287,2.287,0,0,1,.594-1.673,2.156,2.156,0,0,1,1.613-.606,1.848,1.848,0,0,1,1.4.516,2.092,2.092,0,0,1,.492,1.5V69.44h0.852V65.782a2.694,2.694,0,0,0-.7-2.009,2.578,2.578,0,0,0-1.889-.69h0Zm10.206,0.048L98.948,68.5l-2.363-5.373H95.7l2.794,6.309h0.876l2.807-6.309h-0.84Zm8.324,3.154a3.411,3.411,0,0,0-.4-1.661,2.892,2.892,0,0,0-1.092-1.133,3.047,3.047,0,0,0-1.571-.408,3.084,3.084,0,0,0-1.577.408,2.909,2.909,0,0,0-1.1,1.139,3.38,3.38,0,0,0-.4,1.655,3.263,3.263,0,0,0,.42,1.655,2.981,2.981,0,0,0,1.169,1.145,3.5,3.5,0,0,0,1.721.414,3.543,3.543,0,0,0,1.385-.264,2.7,2.7,0,0,0,1.05-.768l-0.48-.552a2.362,2.362,0,0,1-.851.618,2.723,2.723,0,0,1-1.08.21,2.509,2.509,0,0,1-1.727-.606,2.253,2.253,0,0,1-.755-1.589h5.277ZM106.6,63.815a2.159,2.159,0,0,1,1.541.582,2.284,2.284,0,0,1,.7,1.517h-4.473a2.279,2.279,0,0,1,.7-1.517,2.147,2.147,0,0,1,1.529-.582h0Zm7.448,5.685a3.278,3.278,0,0,0,1.913-.486,1.525,1.525,0,0,0,.69-1.313,1.353,1.353,0,0,0-.324-0.959,1.781,1.781,0,0,0-.78-0.492,11.02,11.02,0,0,0-1.211-.288,9.373,9.373,0,0,1-.96-0.21,1.434,1.434,0,0,1-.581-0.318,0.745,0.745,0,0,1-.234-0.576,0.881,0.881,0,0,1,.414-0.756,2.152,2.152,0,0,1,1.229-.288,3.184,3.184,0,0,1,1.859.54l0.372-.684a3.37,3.37,0,0,0-1.008-.426,4.758,4.758,0,0,0-1.223-.162,2.962,2.962,0,0,0-1.835.5,1.56,1.56,0,0,0-.66,1.3,1.417,1.417,0,0,0,.33,1,1.816,1.816,0,0,0,.8.51,10.534,10.534,0,0,0,1.235.294,8.287,8.287,0,0,1,.924.2,1.519,1.519,0,0,1,.575.3,0.685,0.685,0,0,1,.228.546,0.858,0.858,0,0,1-.414.761,2.38,2.38,0,0,1-1.277.27,3.949,3.949,0,0,1-1.247-.2,3.231,3.231,0,0,1-1-.51l-0.384.672a3.162,3.162,0,0,0,1.1.558,4.84,4.84,0,0,0,1.469.222h0Zm8.155-1.055a1.259,1.259,0,0,1-.425.24,1.565,1.565,0,0,1-.51.084,1.07,1.07,0,0,1-.81-0.294,1.191,1.191,0,0,1-.281-0.858V63.851H122.1v-0.72h-1.919V61.752h-0.852v1.379H118.2v0.72h1.127v3.814a1.671,1.671,0,0,0,1.847,1.835,2.4,2.4,0,0,0,.738-0.114,1.617,1.617,0,0,0,.593-0.33Zm10.674-5.361a3.09,3.09,0,0,0-1.493.354,2.458,2.458,0,0,0-1,.978,2.066,2.066,0,0,0-.87-1,2.7,2.7,0,0,0-1.373-.336,2.945,2.945,0,0,0-1.379.312,2.277,2.277,0,0,0-.936.888V63.132h-0.815V69.44h0.851V66.13a2.344,2.344,0,0,1,.57-1.673,2.016,2.016,0,0,1,1.541-.606,1.74,1.74,0,0,1,1.349.516,2.141,2.141,0,0,1,.474,1.5V69.44h0.852V66.13a2.359,2.359,0,0,1,.563-1.673,2.011,2.011,0,0,1,1.547-.606,1.727,1.727,0,0,1,1.338.516,2.141,2.141,0,0,1,.473,1.5V69.44h0.852V65.782a2.746,2.746,0,0,0-.678-2.015,2.506,2.506,0,0,0-1.865-.684h0Zm11.346,3.2a3.411,3.411,0,0,0-.4-1.661,2.9,2.9,0,0,0-1.091-1.133,3.242,3.242,0,0,0-3.148,0,2.911,2.911,0,0,0-1.1,1.139,3.38,3.38,0,0,0-.4,1.655,3.263,3.263,0,0,0,.42,1.655,2.987,2.987,0,0,0,1.169,1.145,3.505,3.505,0,0,0,1.722.414,3.55,3.55,0,0,0,1.385-.264,2.7,2.7,0,0,0,1.049-.768l-0.48-.552a2.345,2.345,0,0,1-.851.618,2.721,2.721,0,0,1-1.079.21,2.51,2.51,0,0,1-1.728-.606,2.257,2.257,0,0,1-.755-1.589h5.277Zm-3.058-2.471a2.162,2.162,0,0,1,1.541.582,2.283,2.283,0,0,1,.7,1.517h-4.473a2.284,2.284,0,0,1,.7-1.517,2.143,2.143,0,0,1,1.529-.582h0Zm8.971-.732a3.094,3.094,0,0,0-1.434.318,2.367,2.367,0,0,0-.965.894V63.132H146.92V69.44h0.852V66.13a2.287,2.287,0,0,1,.594-1.673,2.154,2.154,0,0,1,1.613-.606,1.848,1.848,0,0,1,1.4.516,2.091,2.091,0,0,1,.492,1.5V69.44h0.851V65.782a2.693,2.693,0,0,0-.7-2.009,2.575,2.575,0,0,0-1.888-.69h0Zm8.886,5.361a1.259,1.259,0,0,1-.425.24,1.565,1.565,0,0,1-.51.084,1.07,1.07,0,0,1-.81-0.294A1.191,1.191,0,0,1,157,67.617V63.851h1.918v-0.72H157V61.752h-0.852v1.379h-1.127v0.72h1.127v3.814A1.671,1.671,0,0,0,157.99,69.5a2.4,2.4,0,0,0,.738-0.114,1.617,1.617,0,0,0,.593-0.33Zm4.5,1.055a3.28,3.28,0,0,0,1.913-.486,1.527,1.527,0,0,0,.689-1.313,1.357,1.357,0,0,0-.323-0.959,1.781,1.781,0,0,0-.78-0.492,11.077,11.077,0,0,0-1.211-.288,9.373,9.373,0,0,1-.96-0.21,1.427,1.427,0,0,1-.581-0.318,0.745,0.745,0,0,1-.234-0.576,0.883,0.883,0,0,1,.413-0.756,2.158,2.158,0,0,1,1.23-.288,3.186,3.186,0,0,1,1.859.54l0.371-.684a3.353,3.353,0,0,0-1.007-.426,4.758,4.758,0,0,0-1.223-.162,2.96,2.96,0,0,0-1.835.5,1.56,1.56,0,0,0-.66,1.3,1.417,1.417,0,0,0,.33,1,1.816,1.816,0,0,0,.8.51,10.485,10.485,0,0,0,1.235.294,8.262,8.262,0,0,1,.923.2,1.516,1.516,0,0,1,.576.3,0.685,0.685,0,0,1,.228.546,0.858,0.858,0,0,1-.414.761,2.383,2.383,0,0,1-1.277.27,3.959,3.959,0,0,1-1.248-.2,3.236,3.236,0,0,1-.995-0.51l-0.384.672a3.162,3.162,0,0,0,1.1.558,4.835,4.835,0,0,0,1.469.222h0Z"/>
</svg>
